<?xml version="1.0" encoding="UTF-8"?>
<svg id="Layer_1" data-name="Layer 1" xmlns="http://www.w3.org/2000/svg" viewBox="0 0 64 51.55">
  <path d="m7.7,7.57c.4,2.9.5,4.9.5,9v2.6h8.4v-2.6c0-4.2.2-6.1.5-9,0,0-9.4,0-9.4,0Zm.5,33c0,4.8-.8,6.1-4.2,7.7l.2.6c5.7-.4,12.4-1.9,12.4-10.3v-12.9h-8.4v14.9Z" fill="#fff" stroke-width="0"/>
  <path d="m50.9,25.67c-.4,7.7-3.8,14.1-10.7,14.1s-10.2-6.4-10.7-14.1h-9c1,9.6,9.2,15.1,19.7,15.1s18.7-5.4,19.6-15.1c.1,0-8.9,0-8.9,0Zm-10.7-18c6,0,9.4,5,10.4,11.5h8.8c-2.1-8-9.7-12.5-19.2-12.5s-17.1,4.5-19.2,12.5h8.8c1-6.5,4.3-11.5,10.4-11.5Z" fill="#fff" stroke-width="0"/>
</svg>